<svg width="526" height="179" viewBox="0 0 526 179" fill="none" xmlns="http://www.w3.org/2000/svg">
<path fill-rule="evenodd" clip-rule="evenodd" d="M226.6 85.6702C232.966 85.6702 238.9 83.2091 243.895 78.9627C248.89 83.2091 254.824 85.6702 261.19 85.6702C268.344 85.6702 274.952 82.5624 280.295 77.3058C285.638 82.5624 292.246 85.6702 299.4 85.6702C317.17 85.6702 331.576 66.4922 331.576 42.8351C331.576 19.1779 317.17 0 299.4 0C292.246 0 285.638 3.10775 280.295 8.36441C274.952 3.10775 268.344 0 261.19 0C254.824 0 248.89 2.46106 243.895 6.70746C238.9 2.46106 232.966 0 226.6 0C208.83 0 194.424 19.1779 194.424 42.8351C194.424 66.4922 208.83 85.6702 226.6 85.6702Z" fill="url(#paint0_radial_5027_12528)"/>
<path fill-rule="evenodd" clip-rule="evenodd" d="M226.6 85.6702C232.966 85.6702 238.9 83.2091 243.895 78.9627C248.89 83.2091 254.824 85.6702 261.19 85.6702C268.344 85.6702 274.952 82.5624 280.295 77.3058C285.638 82.5624 292.246 85.6702 299.4 85.6702C317.17 85.6702 331.576 66.4922 331.576 42.8351C331.576 19.1779 317.17 0 299.4 0C292.246 0 285.638 3.10775 280.295 8.36441C274.952 3.10775 268.344 0 261.19 0C254.824 0 248.89 2.46106 243.895 6.70746C238.9 2.46106 232.966 0 226.6 0C208.83 0 194.424 19.1779 194.424 42.8351C194.424 66.4922 208.83 85.6702 226.6 85.6702Z" fill="url(#paint1_radial_5027_12528)"/>
<path d="M220.997 44.4238L220.477 46.3544L222.431 46.8773L222.057 45.4494L220.997 44.4238ZM230.743 45.4494L230.369 46.8773L232.322 46.3544L231.803 44.4238L230.743 45.4494ZM222.057 40.6229L220.997 41.6486L221.392 43.0362L222.057 40.6229Z" fill="white"/>
<path d="M221.391 43.0361L220.996 44.4238L222.056 45.4494L221.391 43.0361Z" fill="white"/>
<path d="M220.996 41.6486L219.562 43.0362L220.996 44.4238L221.391 43.0362L220.996 41.6486ZM223.905 47.2392L224.965 48.2649L226.399 47.8828L223.905 47.2392ZM227.833 48.2649L229.828 48.7676L230.368 46.8773L228.893 47.2392L227.833 48.2649Z" fill="white"/>
<path d="M228.892 47.2393L230.367 46.8773L230.741 45.4495L228.892 47.2393ZM222.429 46.8773L222.969 48.7677L224.964 48.2649L223.905 47.2393L222.429 46.8773ZM226.398 47.8828L227.832 48.2649L228.892 47.2393L226.398 47.8828Z" fill="white"/>
<path d="M224.966 48.2649L226.4 49.6525L227.834 48.2649L226.4 47.8828L224.966 48.2649ZM222.431 39.1951L220.477 39.7179L220.997 41.6485L222.057 40.6229L222.431 39.1951ZM222.057 45.4494L222.431 46.8772L223.906 47.2392L222.057 45.4494ZM231.408 43.0362L231.803 41.6485L230.743 40.6229L231.408 43.0362Z" fill="white"/>
<path d="M223.905 38.8333L222.43 39.1952L222.056 40.6231L223.905 38.8333ZM230.742 40.6231L230.368 39.1952L228.893 38.8333L230.742 40.6231ZM231.802 44.4239L233.236 43.0363L231.802 41.6487L231.407 43.0363L231.802 44.4239Z" fill="white"/>
<path d="M230.742 40.6229L228.893 38.8331L226.399 38.1896L223.906 38.8331L222.056 40.6229L221.391 43.0362L222.056 45.4494L223.906 47.2393L226.399 47.8828L228.893 47.2393L230.742 45.4494L231.407 43.0362L230.742 40.6229Z" fill="white"/>
<path d="M230.741 45.4494L231.801 44.4238L231.406 43.0362L230.741 45.4494ZM231.801 41.6485L232.321 39.7179L230.367 39.1951L230.741 40.6229L231.801 41.6485ZM230.367 39.1951L229.827 37.3047L227.832 37.8074L228.892 38.8331L230.367 39.1951ZM224.964 37.8074L222.969 37.3047L222.429 39.1951L223.905 38.8331L224.964 37.8074ZM226.398 38.1895L224.964 37.8074L223.905 38.8331L226.398 38.1895Z" fill="white"/>
<path d="M227.833 37.8077L226.399 36.42L224.966 37.8077L226.399 38.1898L227.833 37.8077Z" fill="white"/>
<path d="M228.893 38.8331L227.833 37.8075L226.399 38.1896L228.893 38.8331ZM224.965 48.2649L222.97 48.7677L223.905 52.106L226.399 49.6525L224.965 48.2649ZM223.905 52.106L226.399 61.1356L228.893 52.106L226.399 49.6525L223.905 52.106ZM222.43 46.8773L220.476 46.3544L219.562 49.6525L222.97 48.7677L222.43 46.8773Z" fill="white"/>
<path d="M219.562 49.6525L217.069 58.7223L223.905 52.106L222.97 48.7677L219.562 49.6525ZM217.069 45.4495L210.19 52.106L219.562 49.6525L220.477 46.3544L217.069 45.4495Z" fill="white"/>
<path d="M220.996 44.4239L219.562 43.0362L217.068 45.4495L220.476 46.3544L220.996 44.4239ZM220.996 41.6486L220.476 39.718L217.068 40.623L219.562 43.0362L220.996 41.6486Z" fill="white"/>
<path d="M217.069 40.6229L207.697 43.0362L217.069 45.4494L219.562 43.0362L217.069 40.6229ZM235.771 45.4494L232.322 46.3544L233.236 49.6525L242.608 52.106L235.771 45.4494Z" fill="white"/>
<path d="M230.368 46.8772L229.828 48.7676L233.236 49.6525L232.322 46.3543L230.368 46.8772ZM227.833 48.2648L226.399 49.6525L228.893 52.1059L229.828 48.7676L227.833 48.2648ZM231.802 44.4238L232.322 46.3543L235.771 45.4494L233.236 43.0361L231.802 44.4238Z" fill="white"/>
<path d="M228.893 52.1062L235.771 58.7225L233.236 49.6527L229.828 48.7678L228.893 52.1062ZM230.368 39.1953L232.322 39.7181L233.236 36.42L229.828 37.3049L230.368 39.1953Z" fill="white"/>
<path d="M235.771 40.623L242.608 34.0066L233.236 36.4199L232.322 39.718L235.771 40.623ZM233.236 36.4199L235.771 27.3501L228.893 34.0066L229.828 37.3047L233.236 36.4199ZM235.771 45.4495L245.102 43.0362L235.771 40.623L233.236 43.0362L235.771 45.4495Z" fill="white"/>
<path d="M231.802 41.6486L233.236 43.0362L235.771 40.623L232.321 39.718L231.802 41.6486ZM223.905 34.0066L217.068 27.3501L219.562 36.4199L222.97 37.3047L223.905 34.0066Z" fill="white"/>
<path d="M222.43 39.1953L222.97 37.3049L219.562 36.42L220.476 39.7181L222.43 39.1953Z" fill="white"/>
<path d="M219.562 36.42L210.19 34.0067L217.069 40.623L220.477 39.7181L219.562 36.42ZM227.833 37.8076L229.828 37.3048L228.893 34.0067L226.399 36.42L227.833 37.8076Z" fill="white"/>
<path d="M228.893 34.0067L226.399 24.9369L223.906 34.0067L226.399 36.4199L228.893 34.0067Z" fill="white"/>
<path d="M224.964 37.8076L226.398 36.42L223.905 34.0067L222.969 37.3048L224.964 37.8076Z" fill="white"/>
<path d="M226.399 53.3126C232.263 53.3126 237.017 48.7117 237.017 43.0362C237.017 37.3607 232.263 32.7598 226.399 32.7598C220.534 32.7598 215.78 37.3607 215.78 43.0362C215.78 48.7117 220.534 53.3126 226.399 53.3126Z" fill="#FE00BA"/>
<path d="M226.399 52.1059C231.575 52.1059 235.771 48.0452 235.771 43.0361C235.771 38.027 231.575 33.9663 226.399 33.9663C221.223 33.9663 217.027 38.027 217.027 43.0361C217.027 48.0452 221.223 52.1059 226.399 52.1059Z" fill="white"/>
<path d="M282.331 42.8803C282.331 48.5064 280.611 53.5578 277.882 57.1781C275.154 60.7978 271.468 62.9359 267.487 62.9359C263.506 62.9359 259.82 60.7978 257.091 57.1781C254.363 53.5578 252.643 48.5064 252.643 42.8803C252.643 37.2542 254.363 32.2028 257.091 28.5825C259.82 24.9628 263.506 22.8247 267.487 22.8247C271.468 22.8247 275.154 24.9628 277.882 28.5825C280.611 32.2028 282.331 37.2542 282.331 42.8803Z" stroke="white" stroke-width="2.21086"/>
<mask id="mask0_5027_12528" style="mask-type:alpha" maskUnits="userSpaceOnUse" x="251" y="21" width="33" height="44">
<ellipse cx="267.487" cy="42.8803" rx="15.9498" ry="21.1611" fill="white"/>
</mask>
<g mask="url(#mask0_5027_12528)">
<ellipse cx="276.646" cy="42.8802" rx="13.4336" ry="17.8227" fill="white"/>
</g>
<path d="M317.198 42.8803C317.198 48.5064 315.478 53.5578 312.749 57.1781C310.021 60.7978 306.334 62.9359 302.354 62.9359C298.373 62.9359 294.686 60.7978 291.958 57.1781C289.229 53.5578 287.509 48.5064 287.509 42.8803C287.509 37.2542 289.229 32.2028 291.958 28.5825C294.686 24.9628 298.373 22.8247 302.354 22.8247C306.334 22.8247 310.021 24.9628 312.749 28.5825C315.478 32.2028 317.198 37.2542 317.198 42.8803Z" stroke="white" stroke-width="2.21086"/>
<mask id="mask1_5027_12528" style="mask-type:alpha" maskUnits="userSpaceOnUse" x="286" y="21" width="33" height="44">
<ellipse cx="302.354" cy="42.8803" rx="15.9498" ry="21.1611" fill="white"/>
</mask>
<g mask="url(#mask1_5027_12528)">
<ellipse cx="311.513" cy="42.8802" rx="13.4336" ry="17.8227" fill="white"/>
</g>
<path d="M58.7724 130.896C56.7052 132.612 54.3064 135.459 51.5761 139.438H54.443V161.67H40.3429V160.793H19.1636V161.67H5.0635V139.438H46.3691L43.6193 136.512L3.1913 138.56C3.11329 137.858 3.03528 137.312 2.95727 136.922C2.45022 132.709 1.90415 129.414 1.31909 127.034L9.15896 126.859L15.3606 116.562L31.3914 117.556L26.3013 126.508L35.3698 126.274C34.0047 124.363 32.62 122.061 31.2159 119.37L43.9118 116.679C46.2521 119.994 48.7288 122.822 51.3421 125.162C53.9554 127.502 56.4322 129.414 58.7724 130.896ZM19.1636 148.214V150.905H40.3429V148.214H19.1636ZM88.7277 151.022H116.226C116.226 152.738 116.148 154.318 115.992 155.761C115.836 157.906 114.744 159.427 112.715 160.325C110.687 161.183 107.762 161.612 103.939 161.612H93.9348H87.4406C87.1676 160.325 86.719 159.135 86.0949 158.043C81.2194 157.38 76.8509 157.029 72.9895 156.99C74.3937 153.401 75.3493 150.164 75.8563 147.278H100.312V146.575H74.1596V144.06L73.8086 145.873C72.2484 153.791 71.1368 159.115 70.4737 161.846C65.4032 160.598 61.5222 159.759 58.8309 159.33C60.0401 155.976 61.0347 152.758 61.8148 149.676C62.5949 146.556 63.3554 143.182 64.0965 139.555L68.075 140.198C65.6177 138.872 62.7119 137.761 59.3575 136.863L64.7986 127.912C66.6708 128.458 69.0501 129.433 71.9364 130.837L73.8671 131.715C73.8671 130.506 73.7696 129.082 73.5746 127.444L76.0318 127.327L76.9094 126.391C76.2074 125.611 75.3883 124.772 74.4522 123.875L71.7609 129.492C67.7044 127.619 63.4919 126.254 59.1235 125.396L64.0965 116.035C65.8127 116.464 68.3285 117.361 71.6438 118.726L74.6277 119.897L75.4468 118.141L76.2074 118.843C76.9094 117.751 77.4555 116.718 77.8455 115.743L82.409 117.03L79.1912 121.827L79.8933 122.588C81.3364 120.599 82.6626 118.453 83.8717 116.152L87.5576 117.322H102.886V120.482H87.5576V118.96L86.563 120.365C86.0559 121.184 85.5099 121.983 84.9248 122.763L86.3875 122.529C86.5045 123.582 86.641 124.636 86.797 125.689C86.992 126.742 87.1286 127.502 87.2066 127.97C87.5186 129.765 87.7136 130.993 87.7916 131.656L84.5153 132.124L84.3983 131.13L83.5207 131.305L83.2866 141.836H77.67L77.8455 132.066L75.1542 132.358L74.6862 133.236L76.9094 133.178V135.05C76.9094 137.312 76.7924 139.535 76.5584 141.719C76.2464 141.68 75.9343 141.641 75.6223 141.602C75.3493 141.563 75.0177 141.544 74.6277 141.544L74.4522 142.48H114.822V150.437H88.8447L88.7277 151.022ZM103.12 121.418L104.641 118.141L105.402 118.843C106.104 117.751 106.65 116.718 107.04 115.743L111.604 117.03C110.161 119.214 109.088 120.794 108.386 121.769L109.088 122.588C110.531 120.677 111.877 118.531 113.125 116.152L116.869 118.141L113.71 122.822L115.582 122.529C115.933 125.455 116.323 128.048 116.752 130.311L116.986 131.656L113.71 132.124L113.593 131.13L112.715 131.305L112.481 141.836H106.865L107.04 132.066C106.65 132.105 105.266 132.241 102.886 132.475C102.886 130.486 102.769 128.809 102.535 127.444L105.285 127.327L106.104 126.449C105.324 125.513 104.368 124.519 103.237 123.465V124.87H87.3236V121.418H103.12ZM112.54 124.577L110.902 127.151C111.448 127.151 112.111 127.112 112.891 127.034L112.54 124.577ZM81.824 127.151L83.6962 127.034C83.6572 126.605 83.5597 125.923 83.4036 124.987L81.824 127.151ZM88.4352 125.923H101.95V129.141H88.4352V125.923ZM101.95 133.236H88.4352V130.077H101.95V133.236ZM84.2812 141.544C84.1642 138.073 84.1057 135.225 84.1057 133.002L87.0896 132.826C87.0896 136.337 87.1286 139.126 87.2066 141.193C86.6995 141.31 85.7244 141.427 84.2812 141.544ZM116.226 132.826C116.226 134.387 116.265 135.732 116.343 136.863C116.421 137.956 116.557 139.379 116.752 141.134C114.88 141.368 113.788 141.505 113.476 141.544C113.359 138.073 113.3 135.225 113.3 133.002L116.226 132.826ZM103.003 141.485C103.276 138.989 103.413 136.239 103.413 133.236L106.104 133.178V135.05C106.104 137.312 105.987 139.535 105.753 141.719C104.193 141.563 103.276 141.485 103.003 141.485ZM70.4152 140.608L73.5746 141.134C73.8476 139.769 74.0231 138.58 74.1011 137.566C74.1791 136.551 74.2181 135.362 74.2181 133.997L70.4152 140.608ZM102.36 141.836H88.0257V134.231H102.36V141.836ZM96.7431 137.448H93.6423V138.853H96.7431V137.448ZM87.6161 154.766L87.3821 155.41C90.9315 155.527 95.2025 155.585 100.195 155.585C101.053 155.585 101.638 155.546 101.95 155.468C102.301 155.351 102.496 155.117 102.535 154.766H87.6161ZM159.638 153.07V153.889H174.089V161.202H131.554V155C131.203 157.653 130.657 160.032 129.916 162.138C127.147 160.773 124.885 159.72 123.13 158.979C121.374 158.238 119.502 157.692 117.513 157.341C118.293 155.234 118.878 153.187 119.268 151.198C119.658 149.169 119.931 146.478 120.087 143.124C120.282 139.769 120.38 135.03 120.38 128.907V117.907L174.03 117.966L174.089 127.268H132.608C132.569 127.619 132.549 127.912 132.549 128.146C132.588 128.341 132.608 128.536 132.608 128.731V131.656C132.608 134.387 132.569 137.624 132.491 141.368C133.739 141.134 134.675 140.881 135.299 140.608C135.962 140.335 136.489 139.964 136.879 139.496H133.368V134.231H137.932V133.587H133.953C133.992 131.949 133.797 130.213 133.368 128.38H135.708C140.077 128.38 145.362 128.243 151.564 127.97C151.174 129.921 150.979 131.656 150.979 133.178L147.117 133.353V134.231H151.564V139.496H147.468C149.028 140.315 150.842 140.842 152.909 141.076L152.383 141.544C153.358 141.31 154.177 141.056 154.84 140.783C155.542 140.471 156.166 140.042 156.712 139.496H152.558V134.231H157.356V133.587H152.734C152.773 131.871 152.558 130.135 152.09 128.38H154.723C159.56 128.38 165.391 128.243 172.216 127.97C171.787 129.804 171.573 131.539 171.573 133.178L166.892 133.353V134.231H172.216V139.496H167.536C168.979 140.432 170.929 141.115 173.387 141.544C172.294 143.026 171.534 145.191 171.105 148.038C169.194 147.336 167.789 146.068 166.892 144.235V147.804H159.638V148.682H172.158V153.07H159.638ZM132.432 142.48C132.315 146.693 132.062 150.495 131.671 153.889H134.538V148.448H146.298V153.889H147.936V147.102H149.691C148.677 146.556 147.819 146.01 147.117 145.464V147.804H137.932V144.996C137.113 146.4 135.981 147.414 134.538 148.038C134.382 146.907 134.148 145.912 133.836 145.054C133.524 144.157 133.056 143.299 132.432 142.48ZM153.085 147.102C152.5 145.932 151.798 144.781 150.979 143.65C150.589 144.469 150.199 145.62 149.808 147.102H153.085ZM157.356 144.352C156.81 145.249 155.932 146.166 154.723 147.102H157.356V144.352ZM232.771 145.054V156.171H216.096V161.963H203.283V156.171H177.775V145.054H185.38V140.549C184.6 141.368 183.762 142.149 182.865 142.89C181.89 140.003 180.953 137.527 180.056 135.459C179.198 133.353 178.165 131.344 176.955 129.433C178.945 128.107 180.524 126.313 181.694 124.051C182.904 121.788 183.528 119.233 183.567 116.386L196.789 116.503C196.711 117.4 196.594 118.356 196.438 119.37H230.547V129.901H216.096V132.417H228.968V141.719H216.096V145.054H232.771ZM203.283 129.901H193.045L191.699 132.417H203.283V129.901ZM197.959 141.719V145.054H203.283V141.719H197.959ZM285.719 145.99C286.499 147.2 287.494 148.136 288.703 148.799C289.912 149.462 291.414 149.891 293.208 150.086C292.35 151.724 291.609 153.46 290.985 155.293C290.399 157.087 289.795 159.369 289.171 162.138C286.987 160.812 285.036 159.037 283.32 156.814C283.359 157.009 283.379 157.282 283.379 157.633C283.379 159.817 282.287 161.027 280.102 161.261C277.801 161.417 275.695 161.495 273.784 161.495C271.794 161.495 269.883 161.417 268.05 161.261C266.763 161.144 265.807 160.851 265.183 160.383C264.598 159.876 264.306 159.154 264.306 158.218V158.043C262.901 159.486 261.127 160.851 258.982 162.138C258.318 158.979 257.636 156.424 256.934 154.474L257.285 157.984L257.402 159.213L254.535 159.564L251.844 159.915C251.649 153.206 251.551 148.038 251.551 144.411L256.583 144.118C256.583 146.771 256.602 148.662 256.641 149.793C259.294 149.208 261.224 147.941 262.433 145.99H257.285V142.597L251.727 143.475L251.61 142.246L250.498 142.422V161.729H242.015V143.592C239.947 143.865 237.763 144.099 235.462 144.294C235.462 140.783 235.306 137.917 234.994 135.693L238.563 135.576L240.084 133.646C239.265 132.631 238.348 131.578 237.334 130.486C236.32 129.394 235.442 128.517 234.701 127.853L237.978 119.838C238.797 120.657 239.206 121.067 239.206 121.067C240.142 119.507 241.02 117.732 241.839 115.743L249.445 117.849C247.066 121.749 245.291 124.558 244.121 126.274L244.823 127.093C247.163 123.582 249.23 120.033 251.025 116.445L258.045 118.843H268.284L268.694 117.498H278.347L277.938 118.843H290.282V145.99H285.719ZM255.413 127.502L256.466 133.997C256.7 135.167 256.973 136.766 257.285 138.794V121.652L253.248 127.853L255.413 127.502ZM266.119 125.747V126.859L268.226 125.981C269.045 126.41 269.649 126.8 270.039 127.151C270.351 126.8 270.663 126.332 270.975 125.747H266.119ZM281.565 126.625V125.747H275.714L275.422 126.625H281.565ZM266.119 129.96C267.094 129.531 267.718 129.238 267.992 129.082C267.445 128.653 266.821 128.224 266.119 127.795V129.96ZM275.948 131.949C276.494 131.559 277.021 131.052 277.528 130.428H273.725L275.948 131.949ZM268.167 134.231C267.66 133.49 266.977 132.631 266.119 131.656V134.406L268.167 134.231ZM250.557 135.167C250.362 133.919 250.225 133.041 250.147 132.534L249.445 133.587C249.289 133.821 249.113 134.075 248.918 134.348C248.723 134.621 248.509 134.933 248.275 135.284L250.557 135.167ZM271.092 132.826C270.507 133.334 269.903 133.782 269.279 134.172C270.41 134.055 271.365 133.88 272.145 133.646L271.092 132.826ZM280.746 136.044L278.815 138.326H281.565V133.47C281.097 134.055 280.512 134.679 279.81 135.342L280.746 136.044ZM266.119 138.326H267.582C267.192 137.312 266.704 136.337 266.119 135.401V138.326ZM277.06 137.214C276.592 137.487 275.812 137.858 274.72 138.326H278.23L277.06 137.214ZM236.047 144.937C236.788 144.937 237.822 144.898 239.148 144.82L241.02 144.762V146.751C241.02 149.325 240.981 151.607 240.903 153.596C240.825 155.585 240.63 157.809 240.318 160.266C240.006 160.227 239.343 160.149 238.329 160.032C237.354 159.876 236.203 159.798 234.877 159.798C235.384 157.224 235.696 154.903 235.813 152.836C235.969 150.729 236.047 148.097 236.047 144.937ZM272.848 145.99H264.657C266.529 147.161 268.167 148.058 269.571 148.682H270.917C270.605 148.292 270.02 147.668 269.162 146.81L272.848 145.99ZM279.927 147.395C280.98 146.966 282.033 146.497 283.086 145.99H278.172C279.147 146.81 279.732 147.278 279.927 147.395ZM275.539 152.251C276.085 152.212 276.358 151.997 276.358 151.607C276.358 151.568 276.28 151.198 276.124 150.495L273.14 151.315L271.736 149.618L271.443 151.256C271.404 151.373 271.385 151.549 271.385 151.783C271.385 152.173 271.58 152.368 271.97 152.368C273.998 152.368 275.188 152.329 275.539 152.251ZM276.533 150.437C277.236 150.554 277.918 150.612 278.581 150.612C279.088 150.612 279.478 150.593 279.751 150.554L279.4 149.618L276.533 150.437ZM342.938 140.14C344.147 140.92 345.201 141.524 346.098 141.953C346.995 142.383 347.97 142.714 349.023 142.948C349.647 146.185 349.959 149.208 349.959 152.017C349.959 154.747 349.647 156.834 349.023 158.277C348.594 159.291 348.087 160.032 347.502 160.5C346.917 160.929 346.41 161.183 345.981 161.261C345.552 161.3 345.025 161.319 344.401 161.319H338.609C336.971 161.319 335.703 161.183 334.806 160.91C333.948 160.598 333.324 160.09 332.934 159.388C332.583 158.647 332.407 157.575 332.407 156.171C332.407 155.781 332.446 155 332.524 153.83L333.636 140.315L332.349 140.432C332.193 146.088 331.861 150.437 331.354 153.479C330.847 156.483 330.145 159.291 329.248 161.904C325.581 160.656 322.578 159.759 320.238 159.213L316.727 159.564L313.568 159.915C313.334 153.869 313.217 148.701 313.217 144.411L319.185 144.118C319.185 148.292 319.341 151.939 319.653 155.059C320.433 153.304 321.057 151.393 321.525 149.325C321.993 147.258 322.305 144.625 322.461 141.427L321.408 141.544C321.252 139.555 321.096 137.897 320.94 136.571C320.784 135.245 320.511 133.587 320.121 131.598L322.988 131.422L324.684 127.678H319.419V122.471L315.206 127.853L317.781 127.502C318.639 131.247 319.263 134.192 319.653 136.337C320.082 138.443 320.394 140.53 320.589 142.597L313.393 143.533L313.276 142.246L312.164 142.422V161.729H301.808V143.592C299.39 143.865 296.816 144.099 294.085 144.294C294.085 140.783 293.929 137.917 293.617 135.693L297.771 135.576L299.644 133.646C298.629 132.592 297.518 131.52 296.309 130.428C295.1 129.336 294.066 128.478 293.208 127.853L297.069 119.838L298.59 121.067C299.488 119.819 300.502 118.044 301.633 115.743L310.701 117.849L309.707 119.194C307.327 122.51 305.572 124.87 304.441 126.274L305.202 127.093C307.893 123.582 310.37 120.033 312.632 116.445L320.589 118.726H328.195V116.562H338.901V118.726H349.257V127.678H344.986C347.092 129.667 349.335 131.52 351.714 133.236C350.583 134.133 349.394 135.284 348.145 136.688C346.936 138.092 345.942 139.438 345.162 140.725L343.64 139.262L342.997 139.321L342.938 140.14ZM335.157 127.678L333.811 130.72L336.561 130.545C336.015 129.765 335.625 129.18 335.391 128.79L339.662 127.678H335.157ZM311.696 132.358C310.604 133.685 309.824 134.66 309.356 135.284L312.222 135.167L311.696 132.358ZM342.178 148.916V149.033C342.178 149.306 342.236 149.54 342.353 149.735C342.509 149.891 342.685 149.969 342.88 149.969C343.075 149.969 343.25 149.871 343.406 149.676C343.562 149.481 343.64 149.208 343.64 148.857C343.64 146.907 343.367 144.45 342.821 141.485L342.178 148.916ZM294.846 144.937C295.626 144.937 296.835 144.898 298.473 144.82L300.814 144.762C300.814 148.233 300.755 151.002 300.638 153.07C300.56 155.098 300.287 157.497 299.819 160.266C299.546 160.227 298.805 160.149 297.596 160.032C296.426 159.876 295.022 159.798 293.383 159.798C294.007 157.224 294.397 154.903 294.553 152.836C294.748 150.768 294.846 148.136 294.846 144.937ZM420.88 126.274L419.944 128.79C418.345 133.08 417.233 135.947 416.609 137.39C419.184 141.368 420.471 144.918 420.471 148.038C420.471 151.588 419.535 154.318 417.662 156.229C415.829 158.101 413.294 158.998 410.057 158.92C409.628 155.332 408.867 152.426 407.775 150.203V161.436H396.834V124.811L395.02 127.444H395.488V135.284H388.409L387.883 135.752L387.122 136.395H395.43V161.787H384.548V161.202H378.112V161.787H367.113V148.565L365.416 149.267C365.065 145.093 364.266 141.485 363.017 138.443C365.787 138.014 368.146 137.585 370.097 137.156C372.047 136.688 373.861 136.064 375.538 135.284H364.422V127.444H370.682V126.215H365.533V118.258H370.682V116.679H382.559V118.258H388.819V120.306C388.975 119.994 389.111 119.702 389.228 119.429C389.384 119.116 389.521 118.843 389.638 118.609L390.164 117.381L396.834 119.838V117.732H417.896L420.88 126.274ZM382.559 126.215V127.444H384.665L385.542 126.215H382.559ZM407.775 127.619V134.582C409.101 131.851 409.784 129.531 409.823 127.619H407.775ZM407.775 148.038C408.321 147.804 408.769 147.453 409.12 146.985C409.472 146.517 409.647 145.951 409.647 145.288C409.647 143.962 409.023 142.441 407.775 140.725V148.038ZM378.112 145.054H384.548V143.533H378.112V145.054ZM378.112 151.607V153.187H384.548V151.607H378.112ZM479.27 138.443V144.82H472.951C474.433 145.717 476.422 146.536 478.919 147.278C478.919 151.646 478.782 154.844 478.509 156.873C478.275 158.862 477.866 160.169 477.281 160.793C476.695 161.378 475.798 161.67 474.589 161.67C472.444 161.67 470.474 161.514 468.68 161.202C466.925 160.851 465.053 160.325 463.063 159.622C461.269 158.998 459.514 158.238 457.798 157.341C454.6 158.901 449.841 160.403 443.522 161.846C440.948 160.09 438.393 158.647 435.858 157.516C435.468 159.037 434.766 160.5 433.752 161.904L428.779 160.5C425.268 159.486 423.045 158.862 422.109 158.628C423.084 157.536 423.786 156.385 424.215 155.176C424.683 153.928 424.976 152.563 425.093 151.08C425.21 149.598 425.268 147.512 425.268 144.82H422.987V138.443H446.448C446.097 135.05 445.921 130.408 445.921 124.519V120.657C445.999 120.579 445.277 121.418 443.756 123.173L442.235 124.987L444.341 124.753C444.575 129.394 445.024 133.529 445.687 137.156L440.48 137.8L440.304 136.571C436.287 136.883 433.615 137.078 432.289 137.156C427.609 137.468 424.41 137.702 422.694 137.858L422.46 131.071C424.488 130.993 426.243 130.954 427.726 130.954C425.892 128.497 424.176 126.566 422.577 125.162L426.321 119.838L427.375 120.95C428.428 119.546 429.403 118.024 430.3 116.386L437.204 118.785C434.746 121.866 432.894 124.09 431.645 125.455L432.348 126.157C434.688 123.426 436.95 120.657 439.134 117.849L445.921 120.423L445.98 116.62H456.979V121.242L457.973 119.838L458.851 120.833C459.982 119.233 460.801 117.907 461.308 116.854L468.329 118.492C466.379 121.691 464.819 124.129 463.649 125.806L464.351 126.566C466.652 123.173 468.641 120.111 470.318 117.381L477.983 119.311L474.18 125.045L476.929 124.753C477.086 127.015 477.846 131.149 479.211 137.156L473.244 137.8C473.166 137.527 473.088 137.117 473.01 136.571L466.632 137.097C467.802 137.527 468.856 137.975 469.792 138.443H479.27ZM456.979 131.013C458.032 131.013 458.851 130.993 459.436 130.954L456.979 127.912V131.013ZM439.661 130.662C439.583 130.116 439.505 129.297 439.427 128.204C438.92 128.829 438.647 129.16 438.608 129.199C437.672 130.252 437.223 130.759 437.262 130.72C438.354 130.72 439.154 130.701 439.661 130.662ZM472.015 130.662C471.937 130.194 471.859 129.531 471.781 128.673L470.377 130.72L472.015 130.662ZM457.33 137.917C457.369 138.034 457.388 138.209 457.388 138.443H462.127L463.005 137.448C461.406 137.527 459.514 137.683 457.33 137.917ZM448.846 147.746C448.534 147.044 448.164 146.068 447.735 144.82H438.432C441.865 146.185 445.336 147.161 448.846 147.746ZM460.372 146.751C461.542 145.893 462.361 145.249 462.829 144.82H459.202C459.514 145.405 459.904 146.049 460.372 146.751ZM469.616 148.506C469.694 147.804 469.772 146.575 469.85 144.82H463.649L469.616 148.506ZM449.314 148.74C448.378 149.637 446.994 151.159 445.16 153.304C447.228 152.836 449.197 152.27 451.07 151.607C450.407 150.671 449.822 149.715 449.314 148.74ZM468.212 151.607C468.524 151.763 468.797 151.685 469.031 151.373C469.265 151.022 469.46 150.183 469.616 148.857L467.042 151.139L468.212 151.607ZM436.677 152.075C436.599 153.323 436.521 154.259 436.443 154.883C437.808 154.727 439.524 154.454 441.592 154.064C439.758 153.44 438.12 152.777 436.677 152.075ZM502.731 115.333C506.436 115.333 509.849 115.957 512.969 117.205C516.129 118.453 518.625 120.189 520.458 122.412C522.291 124.636 523.208 127.19 523.208 130.077C523.208 132.417 522.643 134.426 521.511 136.103C520.38 137.78 518.937 139.145 517.182 140.198L514.081 141.953C512.404 142.89 511.292 143.533 510.746 143.884C509.849 144.43 509.225 145.035 508.874 145.698C508.523 146.361 508.347 147.141 508.347 148.038H494.949C494.949 145.074 495.652 142.597 497.056 140.608C498.46 138.58 500.82 136.824 504.135 135.342C505.617 134.679 506.69 133.958 507.353 133.178C508.055 132.358 508.406 131.442 508.406 130.428C508.406 129.297 507.86 128.321 506.768 127.502C505.715 126.683 504.369 126.274 502.731 126.274C500.508 126.274 498.772 126.82 497.524 127.912C496.315 129.004 495.71 130.545 495.71 132.534C495.71 133.314 495.827 134.211 496.061 135.225C492.941 134.328 488.28 133.88 482.078 133.88C482.039 133.529 482.02 133.041 482.02 132.417C482.02 129.141 482.878 126.215 484.594 123.641C486.349 121.028 488.787 118.999 491.907 117.556C495.066 116.074 498.674 115.333 502.731 115.333ZM508.406 162.84H494.832V152.426H508.406V162.84Z" fill="#334155"/>
<defs>
<radialGradient id="paint0_radial_5027_12528" cx="0" cy="0" r="1" gradientUnits="userSpaceOnUse" gradientTransform="translate(188.592 1.1154e-06) rotate(44.561) scale(74.2315 118.84)">
<stop stop-color="#FBFFD1"/>
<stop offset="1" stop-color="#D5009C"/>
</radialGradient>
<radialGradient id="paint1_radial_5027_12528" cx="0" cy="0" r="1" gradientUnits="userSpaceOnUse" gradientTransform="translate(293.165 43.0362) rotate(18.0761) scale(60.9248 97.5369)">
<stop stop-color="#FF41CD"/>
<stop offset="1" stop-color="#D4009C" stop-opacity="0"/>
</radialGradient>
</defs>
</svg>
